HIERARCHY
ROOT Hips
{
    OFFSET 0 0 0
    CHANNELS 6 Xposition Yposition Zposition Zrotation Xrotation Yrotation 
    JOINT LeftHip
    {
        OFFSET 3.3 0 0
        CHANNELS 3 Zrotation Xrotation Yrotation 
        JOINT LeftKnee
        {
            OFFSET 0 -17.8 0
            CHANNELS 1 Xrotation 
            End Site
            {
                OFFSET 0 -16.03 0
            }
        }
    }
    JOINT RightHip
    {
        OFFSET -3.3 0 0
        CHANNELS 3 Zrotation Xrotation Yrotation 
        JOINT RightKnee
        {
            OFFSET 0 -17.7 0
            CHANNELS 1 Xrotation 
            End Site
            {
                OFFSET 0 -16.1 0
            }
        }
    }
    JOINT Chest
    {
        OFFSET 0 4.41 0
        CHANNELS 3 Zrotation Xrotation Yrotation 
        JOINT Neck
        {
            OFFSET 0 16.76 0
            CHANNELS 2 Zrotation Xrotation 
            JOINT Head
            {
                OFFSET 0 4.4 0
                CHANNELS 3 Zrotation Xrotation Yrotation 
                End Site
                {
                    OFFSET 0 3.31 0
                }
            }
        }
        JOINT LeftCollar
        {
            OFFSET 1.01 14.58 1.68
            CHANNELS 2 Zrotation Yrotation 
            JOINT LeftShoulder
            {
                OFFSET 5.89 0 0
                CHANNELS 3 Zrotation Xrotation Yrotation 
                JOINT LeftElbow
                {
                    OFFSET 0 -11.63 0
                    CHANNELS 1 Xrotation 
                    End Site
                    {
                        OFFSET 0 -9.24 0
                    }
                }
            }
        }
        JOINT RightCollar
        {
            OFFSET -1.01 14.58 1.68
            CHANNELS 2 Zrotation Yrotation 
            JOINT RightShoulder
            {
                OFFSET -6.39 0 0
                CHANNELS 3 Zrotation Xrotation Yrotation 
                JOINT RightElbow
                {
                    OFFSET 0 -11.08 0
                    CHANNELS 1 Xrotation 
                    End Site
                    {
                        OFFSET 0 -9.13 0
                    }
                }
            }
        }
    }
}
MOTION
Frames:  39
Frame Time: 0.033333
2.80436	25.057	106.64	-2.47895	-7.14744	-4.37342	2.42017	-31.1834	-5.97471	3.37793	1.47052	29.7522	1.96747	24.9742	2.9341	3.61083	10.8529	4.67116	40.5498	-5.88991	-32.1012	0	-18.3846	26.3303	40.499	12.3094	-67.6306	-24.7203	21.7246	-21.6252	-39.556	-29.8207	29.7771	-44.2854	
3.0236	26.4503	109.059	-1.16991	-8.32509	-3.24948	-0.497122	-26.6809	-3.92258	9.38855	1.00583	24.9661	1.00114	28.4159	1.29135	3.7259	10.8526	5.41556	40.1535	-6.07393	-31.9768	0	-17.5406	26.1819	40.8674	13.7975	-64.8521	-24.0513	21.8016	-21.8582	-39.2985	-27.7796	29.4887	-45.6561	
3.25632	27.7456	111.954	-0.0405676	-8.81321	-2.16283	-2.76558	-21.415	-2.73533	14.1959	0.929281	19.1313	-0.452003	34.3347	-0.414411	3.71596	10.5344	5.41069	39.7284	-6.13387	-31.8554	0	-16.8276	26.1773	40.7007	13.5651	-61.7979	-23.3353	21.6131	-22.0348	-38.7645	-24.9032	29.8258	-46.0348	
3.48067	28.5354	114.45	1.03111	-8.32847	-1.20392	-4.64625	-17.2382	-2.43292	16.8595	0.202087	13.1453	-1.62895	41.2789	-1.81947	3.22922	10.0025	4.85716	39.4431	-6.21131	-31.9512	0	-16.3659	26.2121	39.9968	11.9192	-59.629	-22.463	21.292	-22.1865	-38.0804	-21.9645	30.9033	-45.4867	
3.67527	28.9726	116.366	1.78129	-7.13532	-0.695459	-5.97526	-14.0654	-2.59566	17.1054	-0.718239	6.36968	-1.99086	48.5737	-2.54591	2.3001	9.17753	4.10873	39.4098	-6.44802	-32.4384	0	-16.3412	26.0856	38.6036	9.12053	-55.6568	-21.2777	21.0332	-22.3279	-37.6848	-19.3615	32.7544	-44.1611	
3.8127	29.2891	117.821	2.14773	-6.25917	-0.402447	-6.69852	-10.9574	-2.8949	15.8661	-1.2095	-0.785071	-1.90762	54.6597	-2.70886	1.79855	7.8635	3.3097	39.4146	-6.73042	-33.1004	0	-16.5523	25.7733	36.6589	5.28089	-51.2463	-20.1368	20.8072	-22.4153	-37.569	-17.0419	35.1616	-42.3428	
3.91895	29.5229	119.099	2.12396	-6.09247	-0.0494084	-6.90105	-7.41803	-2.93782	14.2844	-1.07663	-7.0059	-1.86761	57.8431	-2.4053	2.19761	6.27452	2.58455	39.1996	-6.91548	-33.622	0	-16.5555	25.2753	34.4551	0.732511	-49.3355	-19.5066	20.4656	-22.4078	-37.5338	-14.697	37.5714	-40.3108	
3.99999	29.6951	120.451	1.77328	-6.40499	0.421095	-6.63357	-3.22601	-2.44529	12.631	-0.519566	-11.8826	-1.9243	57.569	-1.78137	3.22006	4.62822	2.27493	38.7553	-7.09722	-33.7564	0	-16.3801	24.8194	32.437	-4.41497	-49.5968	-19.615	20.1505	-22.3778	-37.6256	-12.1254	39.5625	-38.0778	
4.06874	29.8105	121.827	1.24973	-6.93046	1.143	-5.9846	1.38196	-0.55651	10.6233	0.129835	-15.3692	-2.04984	53.7188	-0.999838	4.32976	2.8269	2.73498	38.2701	-7.43259	-33.4806	0	-16.1736	24.5815	30.7927	-10.0444	-50.0256	-20.5354	20.0697	-22.2896	-38.102	-9.22424	41.1247	-35.6098	
4.1027	29.8393	123.164	0.918328	-7.37994	2.47238	-5.22261	5.63336	2.65164	8.99015	0.421444	-17.7631	-2.55498	46.4548	-0.533169	5.06861	0.801184	3.96433	38.5402	-7.98018	-33.8963	0	-15.7159	24.2544	29.3237	-15.6663	-48.6828	-21.8477	20.4601	-22.2433	-38.9965	-5.9837	41.9905	-33.0238	
4.10749	29.7407	124.643	1.08353	-7.24093	4.47563	-4.60585	8.89093	5.88944	8.9377	-0.0601272	-19.4737	-3.68832	36.2886	-0.76743	5.16087	-1.3881	5.81187	40.3648	-8.76312	-36.2355	0	-15.1438	23.7538	28.0022	-21.0702	-45.9336	-23.0925	21.3993	-22.489	-40.1919	-2.69894	42.0947	-30.4835	
4.07965	29.4718	126.507	1.61628	-6.37494	6.72273	-4.05364	11.443	6.65158	10.7711	-1.17897	-20.7084	-4.46885	25.1846	-1.51882	4.69592	-3.43535	7.96619	42.9158	-9.77566	-39.7382	0	-14.6131	23.0599	26.9091	-26.1887	-43.6476	-24.6342	22.5805	-22.9354	-41.3898	0.610497	41.4181	-27.89	
4.01937	28.8602	128.855	2.37429	-5.48846	8.8033	-3.50524	14.3569	4.28406	14.3747	-2.92009	-22.0177	-3.67317	15.422	-2.34835	4.42884	-5.05808	10.0467	44.8769	-10.9759	-42.9664	0	-14.2373	22.4807	26.1205	-30.902	-41.9898	-27.1115	23.7029	-23.2238	-42.2333	3.94701	39.7423	-25.0989	
3.95692	27.7984	131.591	3.21597	-5.05712	10.6773	-2.91669	18.23	0.0588554	19.2913	-5.15846	-24.1696	-1.47627	8.19648	-2.90954	4.5449	-6.12987	11.6259	46.0128	-12.1113	-45.2828	0	-14.0324	22.1749	25.4516	-34.7625	-40.6483	-30.6385	24.4712	-23.3619	-42.6066	7.11951	37.1118	-22.23	
3.90295	26.5658	134.013	3.3583	-5.13337	12.2745	-1.73987	22.1329	-4.32903	24.143	-6.41875	-26.9532	2.50157	3.58675	-2.86738	4.52574	-6.57184	12.3085	46.5418	-12.8536	-46.4353	0	-14.1767	22.0818	25.1455	-37.2291	-39.5857	-35.0253	24.8589	-23.5881	-42.7856	9.79548	33.621	-19.5486	
3.8183	25.5964	135.455	1.94486	-5.81599	13.4137	0.734944	25.0142	-8.20485	27.1276	-5.15852	-29.1114	4.58292	2.43242	-2.051	4.26879	-6.59269	12.141	46.4065	-13.0278	-46.3766	0	-14.5468	22.2445	25.1174	-38.1521	-38.8392	-39.5062	24.8395	-23.8192	-42.9833	11.7382	30.4759	-17.5326	
3.73215	26.3068	136.819	-0.158754	-7.2686	12.4553	2.69674	22.0437	-7.84665	31.4322	-1.54347	-28.4618	-1.26828	9.99293	-0.563239	3.83438	-6.52622	11.4037	45.4474	-12.5509	-45.1829	0	-14.9649	22.6916	25.4875	-37.4472	-37.7702	-43.1588	24.3128	-23.7076	-43.1712	13.0699	28.951	-16.7013	
3.67134	27.294	139.229	-1.53198	-8.32808	11.3888	3.31091	16.1253	-5.22836	37.7645	1.4784	-24.5908	-3.00151	15.5652	1.14783	3.67972	-6.49394	10.5234	43.8421	-11.4875	-43.1487	0	-15.1726	23.1261	25.8807	-35.4034	-35.6068	-46.2681	23.5294	-23.4223	-43.2099	13.5114	29.2172	-16.9829	
3.61958	28.193	142.005	-2.31879	-8.6956	10.7864	3.2603	9.29987	-3.20055	45.1774	3.68113	-19.6385	-3.56608	19.2398	2.49946	3.70236	-6.43839	9.97021	41.965	-10.0062	-40.7176	0	-15.117	23.4641	26.1116	-32.7095	-33.332	-49.654	22.8572	-23.2458	-43.033	12.7547	30.2963	-17.9842	
3.5702	28.762	144.373	-2.86728	-8.52108	10.4985	3.38422	2.84111	-2.40822	52.2551	5.31553	-15.2118	-3.70394	20.9131	3.27464	3.90958	-6.09907	9.83665	40.3177	-8.51915	-38.653	0	-15.0154	23.7316	26.1713	-29.9167	-32.5412	-52.7902	22.5511	-23.1655	-42.6278	10.8454	31.3644	-19.348	
3.53406	29.0966	146.209	-3.06178	-8.39573	10.27	3.25764	-3.13866	-2.23239	57.8116	6.37808	-11.083	-3.66074	20.7825	3.43644	4.45678	-5.28149	9.99373	39.4453	-7.56456	-37.8309	0	-14.9566	24.0773	26.1759	-27.2978	-33.2817	-54.4051	22.4555	-22.9862	-41.758	8.14262	31.6059	-20.7531	
3.54087	29.3523	147.639	-2.76974	-8.67227	9.85581	2.53331	-8.61204	-2.18753	60.8595	6.84598	-6.72248	-3.18289	19.1611	3.07532	5.27413	-3.85832	10.3999	39.5033	-7.42374	-38.1552	0	-14.9444	24.3513	26.3161	-24.8484	-35.1654	-54.108	22.3405	-22.7688	-40.7379	4.86315	31.8569	-22.0317	
3.58881	29.5349	148.961	-2.13857	-9.16718	9.36364	1.44038	-12.9225	-1.9786	60.4485	6.90448	-1.97906	-2.20421	16.7683	2.35687	6.16371	-2.13248	11.0434	40.3578	-8.15732	-38.8772	0	-15.082	24.4523	26.992	-22.2528	-37.9818	-52.0825	22.1421	-22.4336	-39.6441	1.13425	31.5393	-23.1308	
3.66235	29.6309	150.394	-1.62051	-9.42953	8.5078	0.442919	-16.1176	-1.4068	56.5065	6.79618	2.92259	-1.82958	14.1048	1.67927	6.79179	0.0641758	11.4875	41.4667	-9.15045	-39.1994	0	-15.1933	24.4063	27.8902	-19.1807	-41.0428	-48.2397	21.714	-22.0538	-38.5397	-2.89564	30.9901	-24.1859	
3.74962	29.6628	151.822	-1.45785	-9.20218	6.69629	0.0975406	-18.7931	-0.383796	49.6163	6.45899	7.15505	-2.87913	11.6977	1.3778	6.73707	3.10687	11.0241	42.031	-9.35383	-38.3519	0	-15.5336	24.2643	29.1137	-15.6543	-44.6308	-42.3744	21.2921	-21.8966	-37.8466	-7.23296	31.2691	-25.459	
3.85924	29.6202	153.194	-1.53972	-8.99076	4.33229	0.488466	-20.9456	0.374202	40.3392	5.88218	10.8044	-5.22142	10.2238	1.52304	6.48812	6.16676	9.59339	41.8799	-8.65568	-36.4564	0	-16.156	24.3205	30.5858	-12.0251	-48.4571	-35.7443	21.059	-21.9333	-37.8056	-12.0069	32.4906	-27.0599	
4.06021	29.2976	155.075	-2.01447	-8.93644	2.43923	1.58242	-22.6028	-0.449375	29.139	5.39559	15.1365	-8.00351	10.2204	2.0086	6.33762	7.81507	7.67283	41.3521	-7.70275	-34.3444	0	-16.908	24.8026	32.1534	-8.33907	-51.1556	-30.6811	20.9402	-21.5975	-38.046	-16.7875	33.6477	-28.9707	
4.37511	28.5089	157.843	-3.12664	-9.01261	0.663487	3.50622	-24.7315	-3.24808	17.9119	5.11166	20.7062	-8.9649	12.4354	2.84715	6.49529	8.60975	5.90147	40.746	-7.02051	-32.6701	0	-17.7742	25.7014	33.6977	-4.59695	-52.36	-27.4669	20.8234	-21.1439	-38.3544	-21.2064	34.3233	-31.1356	
4.73101	27.3873	160.701	-4.43932	-8.63863	-1.5431	5.84407	-27.8621	-8.41891	9.92432	4.49667	25.6438	-6.47323	15.9072	3.87264	6.30071	9.6118	5.0172	40.3073	-6.98436	-31.8911	0	-18.6274	26.4436	35.1868	-0.379123	-53.3148	-24.5937	20.8434	-21.1154	-38.6167	-25.052	34.3064	-33.4692	
5.02362	26.024	162.965	-5.21138	-7.6953	-3.58842	8.02244	-31.0394	-17.8953	4.55001	3.18446	28.6892	-3.06073	20.0944	4.39072	5.40453	10.4746	5.07942	40.2068	-7.45989	-31.9937	0	-18.817	26.5859	36.5305	4.37349	-54.4614	-21.8101	20.8511	-21.4083	-38.5116	-27.8729	33.7763	-35.8964	
5.28572	24.7288	164.769	-4.94026	-6.80119	-4.88149	8.59816	-32.6416	-24.7299	0.626486	1.49016	30.8309	1.14298	24.1729	3.98569	4.38261	10.4894	5.49442	40.5326	-7.83726	-32.5154	0	-18.2626	26.6314	37.6441	8.72913	-54.6398	-20.1223	20.8925	-21.4273	-38.3609	-29.1375	33.2601	-38.3484	
5.49924	25.4525	165.855	-3.15592	-6.99932	-3.94363	4.97173	-31.7913	-14.8655	4.99095	0.00187867	30.0712	4.13567	24.2404	2.767	3.90703	10.1458	6.0069	41.084	-7.95998	-33.1142	0	-17.4213	26.7741	38.6517	11.7728	-54.2028	-19.7368	21.2633	-21.3772	-38.6846	-28.9075	32.694	-40.6408	
5.7731	26.5519	167.643	-1.30694	-7.73096	-2.61048	1.4171	-28.5291	-9.18358	9.15976	-0.808559	27.228	4.60339	26.9418	1.02185	3.95908	9.84702	6.74692	41.3612	-8.17529	-33.6002	0	-16.674	26.7899	39.5828	13.1859	-53.9052	-19.9519	21.8858	-21.4995	-39.179	-27.4797	31.9186	-42.4679	
6.1272	27.7474	170.389	0.0717562	-8.32958	-1.75621	-1.24699	-23.6514	-5.45539	14.1545	-0.779443	22.1758	3.0758	32.319	-0.868928	3.92161	9.63283	7.61711	41.1232	-8.6916	-33.8682	0	-15.9413	26.5561	40.0833	13.0972	-54.2138	-20.2643	22.3438	-21.7631	-39.3152	-25.2186	31.2791	-43.624	
6.4809	28.7267	173.128	1.10696	-8.46428	-1.41678	-3.24362	-18.644	-3.94253	17.7432	-0.651305	15.404	1.72891	39.0703	-2.54951	3.74648	9.40778	8.23205	40.4561	-9.51813	-33.909	0	-15.2843	26.4095	39.7382	11.5468	-54.7748	-20.46	22.3745	-21.9631	-38.8783	-22.6747	31.3773	-44.0308	
6.75293	29.2531	175.08	1.94863	-8.07489	-1.38038	-4.77592	-14.7539	-3.73147	18.4488	-1.04295	8.3707	1.46572	46.4653	-3.70362	3.4923	9.04657	8.32079	39.6353	-10.4313	-33.9076	0	-15.0193	26.4432	38.732	8.71674	-54.7871	-20.3912	22.1834	-22.0931	-38.3245	-20.292	32.3559	-43.6735	
6.95338	29.5336	176.479	2.4248	-7.59309	-1.26111	-5.73753	-11.3703	-3.71094	17.1192	-1.42638	1.77962	1.30388	52.898	-4.1452	3.50854	8.15222	7.78891	39.1515	-10.9266	-34.2869	0	-15.1677	26.3567	37.2821	4.84308	-53.5747	-19.9776	21.9534	-22.1469	-37.9481	-18.1136	33.9057	-42.6126	
7.12332	29.8047	177.754	2.46384	-7.29397	-0.736696	-6.11149	-7.68768	-3.30978	14.9298	-1.31191	-4.24987	0.627977	57.0047	-3.93445	3.90999	6.51104	6.84298	39.1966	-10.8174	-35.0842	0	-15.4105	25.8929	35.4177	0.281881	-51.8335	-19.2923	21.677	-22.0658	-37.8613	-15.8594	35.4934	-40.9773	
7.2669	30.0361	179.034	2.18855	-7.25336	0.0123046	-6.07785	-3.68862	-2.86442	12.63	-0.857403	-9.38276	-0.371825	57.9298	-3.25967	4.57183	4.621	6.1006	39.5157	-10.3994	-35.7668	0	-15.6158	25.1635	33.5811	-4.94875	-51.2687	-18.6204	21.4802	-21.8988	-38.1629	-13.2847	36.8919	-38.9868	
